<svg version="1.2" xmlns="http://www.w3.org/2000/svg" viewBox="0 0 207 199" width="512" height="492">
	<title>logo</title>
	<style>
		.s0 { fill: #000000 } 
	</style>
	<g>
		<path class="s0" d="m107.5 0.6c-15.5 3.2-20 5-27.9 11.1-10.6 8.2-16.3 21.4-15.3 35.5 0.3 4.4 0.9 8.4 1.4 8.9 0.4 0.4 3.5-0.9 6.9-3.1 12.7-8.1 34.7-11.7 44.9-7.5 10.6 4.4 15.7 15.2 10.4 21.9-4.7 6-13.9 7.8-27 5.2-9.2-1.9-25.6-7.1-34.7-11.2-3.1-1.4-6.6-2.9-7.7-3.4-5.3-2.3-14.8-4.9-22.3-6.1-13.1-2-24.4 1-30.9 8.5-8.9 10-6.2 25.5 6.1 34.7 6.1 4.6 12.9 6.9 23.4 7.6l8.2 0.6v-2.7c0-4.1 3.9-14.8 6.3-17.4 7-7.5 19.9-8.8 38.7-3.8 14.7 3.9 27.5 4.5 35.4 1.7 3.3-1.1 7.8-3.3 10-4.8 7.5-5.1 16.3-14.9 19.8-22 3-6.1 3.3-7.6 3.3-15.8 0-8.3-0.3-9.6-3.4-15.9-4.5-9.2-9-13.9-16.6-17.5-8.6-4.1-21.3-6-29-4.5z"/>
		<path class="s0" d="m167.2 35.7c-6.8 3.3-10.8 13-12.4 30.3-0.5 6.3-2 14.6-3.1 18.5-1.8 5.9-3.1 8-8.2 13.1-11.5 11.8-23.7 13.6-53 7.9-36.7-7.1-64.3 1.9-75.3 24.4-3.6 7.5-3.7 7.7-3.6 19.6 0 11.1 0.3 12.6 3.1 19.2 8.1 19 23.6 30.3 41.8 30.3 23.4-0.1 47.1-14.9 68.5-43 10.6-13.9 25.4-27.1 37-33l4.1-2.1-0.7 2.8c-1.3 5.3-6.9 15.8-11.4 21.5-7.2 9-16.6 15.8-27.7 19.9-2.9 1.1-5.3 2.4-5.3 2.9 0 1.7 9.6 11.3 14.9 14.9 22.3 15.2 44 6.3 62-25.4 6.6-11.5 10.8-33.7 8.2-43.1-5.7-21-31.2-16.6-63.5 11-4.5 3.8-13.7 12.4-20.6 19.2-14.2 14-17.5 16.7-23.7 19-12.1 4.7-31-3.1-36.9-15.3-2.4-4.8-2.6-5.8-1.5-9.2 3.1-10.6 8.5-12.6 36.1-13.4 22.8-0.7 30-2 39.2-6.9 11.7-6.2 19.9-17.2 24.3-32.8l2.2-7.4 2.1 5.5c1.1 3.1 2.6 8.4 3.3 11.8l1.3 6.2 4.5-0.7c22.3-3.4 32.6-27.6 21.6-50.8-2.8-6-9.6-13.3-14.2-15.2-4.3-1.8-9-1.7-13.1 0.3z"/>
	</g>
</svg>